<svg width="377" height="18" viewBox="0 0 377 18" fill="none" xmlns="http://www.w3.org/2000/svg">
<path fill-rule="evenodd" clip-rule="evenodd" d="M90 12.5799C90.8967 11.5927 91.4325 10.3308 91.52 8.99992C91.4325 7.66909 90.8967 6.40716 90 5.41992C89.5084 5.87561 89.1187 6.4302 88.8568 7.04722C88.5948 7.66424 88.4664 8.32973 88.48 8.99992C88.4683 9.66985 88.5975 10.3348 88.8594 10.9515C89.1213 11.5683 89.5099 12.1231 90 12.5799V12.5799Z" fill="#1740CE"/>
<path d="M68.3301 0.669922H38.3301C38.0649 0.669922 37.8105 0.775279 37.623 0.962815C37.4354 1.15035 37.3301 1.40471 37.3301 1.66992V16.3299C37.3301 16.5951 37.4354 16.8495 37.623 17.037C37.8105 17.2246 38.0649 17.3299 38.3301 17.3299H68.3301C68.5953 17.3299 68.8496 17.2246 69.0372 17.037C69.2247 16.8495 69.3301 16.5951 69.3301 16.3299V1.66992C69.3301 1.40471 69.2247 1.15035 69.0372 0.962815C68.8496 0.775279 68.5953 0.669922 68.3301 0.669922V0.669922Z" fill="white" stroke="#E0E0E0" stroke-width="0.67"/>
<path d="M49.8002 14.0001C50.7865 13.9883 51.7472 13.685 52.5615 13.1285C53.3759 12.5719 54.0074 11.7869 54.3766 10.8723C54.7459 9.95773 54.8364 8.95434 54.6367 7.98842C54.4371 7.0225 53.9562 6.13721 53.2546 5.44393C52.553 4.75066 51.6621 4.28038 50.6938 4.09227C49.7256 3.90415 48.7234 4.00661 47.8132 4.38675C46.9031 4.76689 46.1257 5.40772 45.5789 6.22862C45.0321 7.04951 44.7403 8.01379 44.7402 9.00013C44.7402 9.66182 44.8715 10.3169 45.1265 10.9275C45.3815 11.5381 45.7552 12.092 46.2258 12.557C46.6965 13.0221 47.2548 13.3892 47.8684 13.6369C48.482 13.8846 49.1386 14.0081 49.8002 14.0001V14.0001Z" fill="#CC0000"/>
<path d="M56.8701 14C57.859 14 58.8257 13.7068 59.648 13.1573C60.4702 12.6079 61.1111 11.827 61.4895 10.9134C61.868 9.99979 61.967 8.99446 61.774 8.02455C61.5811 7.05465 61.1049 6.16373 60.4057 5.46447C59.7064 4.76521 58.8155 4.289 57.8456 4.09608C56.8757 3.90315 55.8703 4.00217 54.9567 4.3806C54.0431 4.75904 53.2622 5.39991 52.7128 6.22215C52.1634 7.0444 51.8701 8.0111 51.8701 9C51.8701 10.3261 52.3969 11.5979 53.3346 12.5355C54.2723 13.4732 55.544 14 56.8701 14V14Z" fill="#FF9900"/>
<path fill-rule="evenodd" clip-rule="evenodd" d="M53.3299 12.5799C54.2267 11.5927 54.7625 10.3308 54.8499 8.99992C54.7625 7.66909 54.2267 6.40716 53.3299 5.41992C52.8406 5.8769 52.4532 6.43195 52.193 7.04884C51.9328 7.66572 51.8057 8.33056 51.8199 8.99992C51.8076 9.66902 51.9356 10.3333 52.1956 10.9499C52.4557 11.5665 52.8421 12.1218 53.3299 12.5799V12.5799Z" fill="#F16D27"/>
<path d="M31.6699 0.669922H1.66992C1.40471 0.669922 1.15035 0.775279 0.962815 0.962815C0.775279 1.15035 0.669922 1.40471 0.669922 1.66992V16.3299C0.669922 16.5951 0.775279 16.8495 0.962815 17.037C1.15035 17.2246 1.40471 17.3299 1.66992 17.3299H31.6699C31.9351 17.3299 32.1895 17.2246 32.377 17.037C32.5646 16.8495 32.6699 16.5951 32.6699 16.3299V1.66992C32.6699 1.40471 32.5646 1.15035 32.377 0.962815C32.1895 0.775279 31.9351 0.669922 31.6699 0.669922V0.669922Z" fill="white" stroke="#E0E0E0" stroke-width="0.67"/>
<path d="M14 5.79996L11.25 12.36H9.43L8.08 7.11996C8.06406 6.9972 8.01838 6.8802 7.94693 6.77912C7.87547 6.67804 7.78041 6.59594 7.67 6.53996C7.13718 6.29318 6.57643 6.11186 6 5.99996V5.79996H8.93C9.11859 5.80277 9.29977 5.87383 9.44 5.99996C9.58018 6.12604 9.67505 6.29469 9.71 6.47996L10.42 10.28L12.19 5.79996H14ZM21 10.22C21 8.47996 18.61 8.38996 18.62 7.60996C18.62 7.37996 18.85 7.12996 19.34 7.06996C19.9094 7.01357 20.4834 7.11385 21 7.35996L21.31 5.99996C20.8052 5.80868 20.2699 5.71042 19.73 5.70996C18.06 5.70996 16.87 6.59996 16.86 7.87996C16.86 8.81996 17.7 9.34996 18.35 9.65996C19 9.96996 19.23 10.19 19.23 10.48C19.23 10.92 18.7 11.11 18.23 11.12C17.6233 11.1336 17.0236 10.9888 16.49 10.7L16.18 12.14C16.7831 12.3719 17.4238 12.4906 18.07 12.49C19.85 12.49 21.02 11.61 21.02 10.25L21 10.22ZM25.43 12.35H27L25.63 5.79996H24.18C24.0266 5.79702 23.8761 5.84251 23.75 5.92996C23.6181 6.01225 23.5163 6.13504 23.46 6.27996L20.91 12.36H22.69L23.05 11.36H25.23L25.43 12.35ZM23.54 9.99996L24.43 7.53996L24.94 9.99996H23.54ZM16.4 5.79996L15 12.36H13.3L14.7 5.79996H16.4Z" fill="#1A1F71"/>
</svg>
